<?xml version="1.0" encoding="UTF-8"?><svg id="Dark_Mode_Favicon" xmlns="http://www.w3.org/2000/svg" xmlns:xlink="http://www.w3.org/1999/xlink" viewBox="0 0 1200 1200"><defs><style>.cls-1{fill:#fff;}.cls-2,.cls-3{fill:none;}.cls-4{fill:#009245;}.cls-5{isolation:isolate;}.cls-3{stroke:#009245;stroke-linecap:round;stroke-linejoin:round;stroke-width:60px;}.cls-6{clip-path:url(#clippath);}</style><clipPath id="clippath"><rect class="cls-2" x="164" y="277" width="964.78" height="911"/></clipPath></defs><g id="Snail"><g class="cls-5"><g class="cls-6"><path class="cls-1" d="M1038.34,333.94c12.2,0,23.19,6.93,27.85,17.57,4.67,10.64,2.09,22.89-6.54,31.03-8.62,8.15-21.59,10.58-32.86,6.17-11.27-4.4-18.61-14.78-18.61-26.3.02-15.72,13.5-28.45,30.15-28.47ZM1023.26,632.86v32.14c-.01,25.5-1.42,51-4.25,76.36l-10.18,91.2h.01c-9.67,85.58-56.51,163.54-129.35,215.27l-.96.68c-3.26,2.32-5.4,5.78-5.91,9.6-.51,3.82.64,7.68,3.19,10.69l26.01,30.7h-.01c2.71,3.21,3.24,7.59,1.36,11.28-1.88,3.7-5.83,6.05-10.18,6.06H234.01c21.52-32.75,55.52-56.47,95-66.25,46.19,28.36,101.09,41.35,155.98,36.94,54.9-4.41,106.67-25.99,147.12-61.32,66.35-36.75,123.73-86.34,168.35-145.51,0,0,9.48-12.61,9.66-12.9.11-.18,64.27-121.28,64.27-121.28h.01c18.53-35.09,28.19-73.76,28.25-112.99v-.65c0-20.34,11.49-39.14,30.15-49.31,18.66-10.17,41.64-10.17,60.3,0,18.66,10.18,30.15,28.97,30.15,49.31ZM253.54,906.73l-2.75-9.87c-16.07-58.21-6.73-120.06,25.91-171.7,43.6-68.51,119.39-113.09,203.74-119.82,84.35-6.74,166.98,25.2,222.14,85.82-13.02,17.03-33.93,27.12-56.18,27.1-8.32,0-15.07,6.38-15.07,14.23s6.75,14.23,15.07,14.23c28.76.03,56.12-11.71,75.01-32.19,13.95,19.66,24.85,41.11,32.38,63.68l.88,2.64h0c-16.28,14.69-37.94,22.86-60.46,22.81h-2.59c-8.32,0-15.07,6.38-15.07,14.23s6.75,14.23,15.07,14.23h2.59c25.31.06,49.98-7.62,70.28-21.9l16.02,47.87-4.56,6.01h.01c-39.84,52.82-90.45,97.59-148.86,131.69l14.56-50.43c13.34-46.37,9.36-95.66-11.26-139.59-15.31-32.53-42.49-58.78-76.59-73.97-34.09-15.2-72.84-18.31-109.16-8.78-36.32,9.53-67.82,31.07-88.72,60.7l-3.81,5.4h-.01c-12.03,17.08-19.08,36.86-20.42,57.34-1.35,20.47,3.04,40.92,12.74,59.29,14.13,26.68,41,45.31,72.2,50.05,31.19,4.74,62.89-5.01,85.17-26.15,22.28-21.16,32.41-51.14,27.2-80.58l-3.4-19.3h0c-.63-3.74-2.82-7.09-6.09-9.3-3.26-2.22-7.31-3.11-11.28-2.48-3.96.62-7.5,2.71-9.81,5.8-2.33,3.1-3.25,6.93-2.56,10.67l3.41,19.3c3.6,20.39-3.42,41.17-18.84,55.82-15.44,14.66-37.4,21.4-59.01,18.12-21.61-3.28-40.23-16.18-50.01-34.67-7.33-13.87-10.65-29.32-9.63-44.79,1.02-15.48,6.34-30.41,15.43-43.32l3.81-5.4h.01c16.9-23.93,42.35-41.34,71.7-49.04,29.36-7.7,60.67-5.18,88.22,7.09,27.56,12.28,49.53,33.49,61.9,59.78,17.81,37.93,21.24,80.49,9.73,120.53l-24.67,85.43c-58.34,38.17-132.73,47.07-199.31,23.85-66.57-23.21-116.98-75.63-135.04-140.44ZM857.44,362.41c0-11.52,7.34-21.9,18.61-26.3,11.27-4.41,24.24-1.97,32.86,6.17,8.63,8.13,11.21,20.39,6.54,31.03-4.66,10.64-15.66,17.57-27.85,17.57-16.65-.02-30.13-12.75-30.15-28.47ZM1038.34,419.34c19.56.03,37.92-8.9,49.27-23.94,11.35-15.04,14.28-34.34,7.86-51.79-6.42-17.44-21.38-30.87-40.17-36.03-18.78-5.16-39.04-1.42-54.37,10.04-15.33,11.47-23.83,29.25-22.81,47.69,1.03,18.44,11.45,35.27,27.97,45.16l-39.59,137.06c-1.18-.05-2.35-.07-3.53-.08-6.1,0-12.17.57-18.14,1.72l-38.34-132.72c18.7-5.84,33.19-19.93,38.83-37.75,5.63-17.81,1.69-37.11-10.55-51.66-12.24-14.56-31.24-22.56-50.89-21.43-19.65,1.14-37.48,11.27-47.75,27.14-10.27,15.87-11.68,35.46-3.78,52.5,7.89,17.03,24.1,29.35,43.41,32.99l40.82,141.33h.01c-27.31,15.41-44.05,43.24-44.07,73.29v.65c-.04,34.81-8.62,69.12-25.07,100.26l-47.15,89.03-17.77-53.15c-22.83-68.24-72.73-125.51-139.25-159.81-66.52-34.31-144.53-42.98-217.67-24.22-73.15,18.77-135.77,63.52-174.76,124.88-36.8,58.24-47.32,127.97-29.21,193.59l2.75,9.87h0c12.46,44.78,38.75,85.05,75.5,115.67-46.95,17.52-84.57,52.01-104.52,95.8-1.99,4.4-1.52,9.45,1.27,13.45,2.8,4,7.53,6.4,12.59,6.4h683.77c10.47,0,20.54-3.73,28.22-10.46,7.67-6.73,12.36-15.94,13.13-25.8.77-9.85-2.43-19.62-8.97-27.34l-16.48-19.45h0c73.23-56.47,119.91-137.93,129.94-226.7l10.17-91.2c2.92-26.35,4.4-52.84,4.41-79.34v-32.14c-.02-17.15-5.5-33.89-15.73-48.06-10.23-14.17-24.73-25.11-41.62-31.4l38.75-134.16c1.18.06,2.35.1,3.53.1Z"/><path class="cls-1" d="M902.66,362.41c0,7.86-6.75,14.23-15.07,14.23s-15.07-6.38-15.07-14.23,6.75-14.23,15.07-14.23,15.07,6.38,15.07,14.23"/><path class="cls-1" d="M1053.41,362.41c0,7.86-6.75,14.23-15.07,14.23s-15.07-6.38-15.07-14.23,6.75-14.23,15.07-14.23,15.07,6.38,15.07,14.23"/><path class="cls-1" d="M939.56,648.6c-7.43-3.44-16.42-.57-20.12,6.41-3.7,7-.75,15.5,6.63,19.05,23.24,10.91,50.55,10.91,73.79,0,3.61-1.68,6.36-4.63,7.65-8.23,1.28-3.59,1-7.52-.8-10.92-1.81-3.4-4.95-5.98-8.77-7.16-3.82-1.19-7.98-.89-11.56.84-14.74,6.92-32.07,6.92-46.81,0ZM721.77,1059.89h-75.37c-8.32,0-15.07,6.38-15.07,14.23s6.75,14.23,15.07,14.23h75.37c8.32,0,15.07-6.38,15.07-14.23s-6.75-14.23-15.07-14.23ZM812.21,1059.89h-30.15c-8.32,0-15.07,6.38-15.07,14.23s6.75,14.23,15.07,14.23h30.15c8.32,0,15.07-6.38,15.07-14.23s-6.75-14.23-15.07-14.23ZM917.74,917.55c-8.32,0-15.07,6.38-15.07,14.23v14.23c0,7.86,6.75,14.23,15.07,14.23s15.07-6.38,15.07-14.23v-14.23c0-3.77-1.59-7.39-4.42-10.06s-6.66-4.17-10.66-4.17ZM872.51,874.84c-8.32,0-15.07,6.38-15.07,14.23v14.23c0,7.86,6.75,14.23,15.07,14.23s15.07-6.38,15.07-14.23v-14.23c0-3.77-1.59-7.39-4.42-10.06s-6.66-4.17-10.66-4.17ZM932.81,846.38c-8.32,0-15.07,6.38-15.07,14.23v14.23c0,7.86,6.75,14.23,15.07,14.23s15.07-6.38,15.07-14.23v-14.23c0-3.77-1.59-7.39-4.42-10.06s-6.66-4.17-10.66-4.17Z"/></g></g></g><g id="Chartline"><polyline class="cls-3" points="-62 437 192 592 348 349 508 470 660 207"/><polygon class="cls-4" points="716.18 340.68 640.71 240.37 516.12 225.05 753.2 45.74 716.18 340.68"/></g></svg>
