<svg width="32" height="24" viewBox="0 0 32 24" fill="none" xmlns="http://www.w3.org/2000/svg">
<g clip-path="url(#clip0_2016_7113)">
<path d="M0 0H32V24H0V0Z" fill="#CC0000" style="fill:#CC0000;fill:color(display-p3 0.8000 0.0000 0.0000);fill-opacity:1;"/>
<path d="M19.5667 19.7117L20.7346 20.3845L19.3909 20.5681L19.0852 22.0613L18.5237 20.6873L17.05 20.8894L18.1926 19.8787L17.6819 18.6267L18.8489 19.2986L19.8303 18.4304L19.5667 19.7117ZM22.8889 15.2771H24.2366L23.1653 16.1062L23.6487 17.5515L22.4739 16.6414L21.2991 17.5515L21.7815 16.1062L20.7112 15.2771H22.0588L22.4739 14.0359L22.8889 15.2771ZM9.61743 9.34839H13.6614L10.4495 11.698L11.8987 15.7937L8.37329 13.2156L4.84888 15.7937L6.2981 11.698L3.08618 9.34839H7.12915L8.37329 5.83276L9.61743 9.34839ZM22.5735 8.75171L23.7405 8.07983L23.2297 9.33179L24.3723 10.3425L22.8987 10.1404L22.3372 11.5144L22.0315 10.0212L20.6877 9.83765L21.8557 9.16479L21.592 7.88354L22.5735 8.75171ZM19.1292 4.4519L20.4963 5.13257L19.0198 5.31812L18.8342 6.79077L18.1506 5.42749L16.8059 5.59644L17.759 4.64526L17.1721 3.47534L18.3459 4.0603L19.2991 3.11011L19.1292 4.4519Z" fill="#FFC90E" style="fill:#FFC90E;fill:color(display-p3 1.0000 0.7882 0.0549);fill-opacity:1;"/>
</g>
<defs>
<clipPath id="clip0_2016_7113">
<rect width="32" height="24" fill="white" style="fill:white;fill-opacity:1;"/>
</clipPath>
</defs>
</svg>