<svg width="16" height="11" viewBox="0 0 16 11" fill="none" xmlns="http://www.w3.org/2000/svg">
<path d="M16 0H0V11H16V0Z" fill="white"/>
<path d="M0 1.24658V3.66658H3.53333L0 1.24658Z" fill="#072D7A"/>
<path d="M6.66647 3.33667L6.67147 0H1.7998L6.66647 3.33667Z" fill="#072D7A"/>
<path d="M12.4668 3.66658H16.0001V1.24658L12.4668 3.66658Z" fill="#072D7A"/>
<path d="M9.33301 0V3.33667L14.1997 0H9.33301Z" fill="#072D7A"/>
<path d="M16.0001 9.7535V7.3335H12.4668L16.0001 9.7535Z" fill="#072D7A"/>
<path d="M9.32812 11.0002H14.1998L9.33313 7.66357L9.32812 11.0002Z" fill="#072D7A"/>
<path d="M0 7.3335V9.7535L3.53333 7.3335H0Z" fill="#072D7A"/>
<path d="M6.66647 11.0002V7.66357L1.7998 11.0002H6.66647Z" fill="#072D7A"/>
<path d="M5.33333 3.66667L0 0V0.825L4.13333 3.66667H5.33333Z" fill="#C92733"/>
<path d="M16.0001 0H14.8001L9.4668 3.66667H10.6668L16.0001 0Z" fill="#C92733"/>
<path d="M10.667 7.3335L16.0003 11.0002V10.1752L11.867 7.3335H10.667Z" fill="#C92733"/>
<path d="M0 11.0002H1.2L6.53333 7.3335H5.33333L0 11.0002Z" fill="#C92733"/>
<path d="M8.8 0H7.2V4.4H0V6.6H7.2V11H8.8V6.6H16V4.4H8.8V0Z" fill="#C92733"/>
</svg>