<svg width="32" height="24" viewBox="0 0 32 24" fill="none" xmlns="http://www.w3.org/2000/svg">
<g clip-path="url(#clip0_2016_7121)">
<path d="M0 0H32V24H0V0Z" fill="#CC0000" style="fill:#CC0000;fill:color(display-p3 0.8000 0.0000 0.0000);fill-opacity:1;"/>
<path fill-rule="evenodd" clip-rule="evenodd" d="M9.93294 8.80176C9.93294 8.80176 11.8337 9.44525 12.4671 10.0889C13.1006 10.7325 14.6839 12.0199 14.6839 13.9502C14.6838 15.8731 13.7408 16.8385 13.7337 16.8457L15.0003 18.1328C15.0003 18.1418 14.9961 18.4592 14.6839 18.7764C14.3672 19.0981 14.0501 19.0977 14.0501 19.0977L12.7835 17.8105C12.7835 17.8105 12.1501 18.454 10.5667 18.4541C8.98788 18.4541 7.72361 16.8552 7.71615 16.8457H7.39974V17.167C7.39974 17.167 7.08266 17.1677 6.76595 17.4893C6.45145 17.8087 5.51299 19.0792 5.49935 19.0977C5.49935 19.0977 5.18226 19.0979 4.86556 18.7764C4.55346 18.4595 4.85668 18.142 4.86556 18.1328C4.86556 18.1328 5.81536 17.4888 6.13216 17.167C6.44887 16.8452 6.44954 16.5234 6.44954 16.5234H7.08236L7.71615 15.8809C7.73771 15.8983 9.30573 17.1666 10.2493 17.167C10.9454 17.167 11.4709 17.1651 11.9515 16.9121L7.71615 12.3408L6.76595 13.3057L5.49935 12.0186L8.03255 9.7666L9.93294 10.0889L8.34993 11.6973L12.9046 16.0518C13.2451 15.6387 13.4173 15.215 13.4173 14.2715C13.4173 12.9847 13.2607 12.613 12.7835 11.6973C12.0866 10.3601 9.93294 8.80176 9.93294 8.80176Z" fill="#FFC90E" style="fill:#FFC90E;fill:color(display-p3 1.0000 0.7882 0.0549);fill-opacity:1;"/>
<path d="M10.467 4.18457H12.4319L10.8713 5.39844L11.5754 7.51465L9.86255 6.18262L8.15063 7.51465L8.85474 5.39844L7.29419 4.18457H9.25806L9.86255 2.36719L10.467 4.18457ZM9.56079 4.5625H8.57837L9.35864 5.16992L9.0061 6.22852L9.86255 5.56152L10.719 6.22852L10.3665 5.16992L11.1467 4.5625H10.1653L9.86255 3.6543L9.56079 4.5625Z" fill="#FFC90E" style="fill:#FFC90E;fill:color(display-p3 1.0000 0.7882 0.0549);fill-opacity:1;"/>
</g>
<defs>
<clipPath id="clip0_2016_7121">
<rect width="32" height="24" fill="white" style="fill:white;fill-opacity:1;"/>
</clipPath>
</defs>
</svg>